<svg xmlns="http://www.w3.org/2000/svg" xmlns:xlink="http://www.w3.org/1999/xlink" width="500" zoomAndPan="magnify" viewBox="0 0 375 374.999991" height="500" preserveAspectRatio="xMidYMid meet" version="1.2"><defs><clipPath id="339b30041b"><path d="M 46.382812 38.050781 L 328.382812 38.050781 L 328.382812 337.300781 L 46.382812 337.300781 Z M 46.382812 38.050781 "/></clipPath></defs><g id="5373f5cf70"><g clip-rule="nonzero" clip-path="url(#339b30041b)"><path style=" stroke:none;fill-rule:evenodd;fill:#424242;fill-opacity:1;" d="M 114.59375 331.117188 L 136.703125 331.117188 L 136.703125 190.484375 L 114.59375 177.742188 Z M 231.890625 331.117188 L 231.890625 274.464844 L 260.171875 258.160156 L 260.171875 96.992188 L 176.324219 48.679688 L 176.324219 206.21875 L 204.613281 222.527344 L 204.613281 337.289062 L 170.152344 337.289062 L 170.152344 209.757812 L 142.875 194.042969 L 142.875 337.289062 L 108.417969 337.289062 L 108.417969 167.085938 L 136.703125 183.386719 L 136.703125 119.832031 L 52.851562 168.152344 L 52.851562 337.289062 L 46.679688 337.289062 L 46.679688 164.613281 L 142.875 109.175781 L 142.875 186.945312 L 170.152344 202.660156 L 170.152344 38.023438 L 266.351562 93.460938 L 266.351562 254.605469 L 328.089844 219.027344 L 328.089844 337.289062 L 321.917969 337.289062 L 321.917969 229.683594 L 266.351562 261.699219 L 266.351562 337.289062 L 231.890625 337.289062 Z M 260.171875 265.261719 L 238.0625 278.003906 L 238.0625 331.117188 L 260.171875 331.117188 Z M 176.324219 213.316406 L 176.324219 331.117188 L 198.441406 331.117188 L 198.441406 226.0625 L 176.324219 213.316406 "/></g></g></svg>